<!DOCTYPE svg PUBLIC "-//W3C//DTD SVG 20000303 Stylable//EN" "http://www.w3.org/TR/2000/03/WD-SVG-20000303/DTD/svg-20000303-stylable.dtd"[]><svg xmlns="http://www.w3.org/2000/svg" width="64px" height="64px" viewBox="0 0 999 959"><path style="fill:#ccccc2" d="M892,68 l78,-40 0,862 -78,40 0,-862z" /><path style="fill:#f2f2ef;stroke:#000;stroke-width:2" d="M892,68 l78,-40 -862,0 -80,40 864,0z" /><path style="fill:#bfbfb2" d="M892,519 l78,-218 0,589 -78,40 0,-411z" /><path style="fill:none;stroke:#000;stroke-width:2" d="M892,68 l78,-40 0,862 -78,40 0,-862" /><path style="fill:#a6a694" d="M28,68 l864,0 0,862 -864,0 0,-862z" /><path style="fill:#b2b2a3" d="M28,68 l864,0 0,667 -864,78 0,-745z" /><path style="fill:#bfbfb2" d="M28,68 l864,0 0,529 -864,78 0,-607z" /><path style="fill:#ccccc2" d="M28,68 l864,0 0,489 -864,78 0,-567z" /><path style="fill:#d9d9d1" d="M28,68 l864,0 0,431 -864,78 0,-509z" /><path style="fill:#e5e5e0" d="M28,68 l864,0 0,293 -864,78 0,-371z" /><path style="fill:#f2f2ef" d="M28,68 l864,0 0,135 -864,80 0,-215z" /><path style="fill:none;stroke:#000;stroke-width:2" d="M28,68 l864,0 0,862 -864,0 0,-862" /><path style="fill:#d9d9d1;stroke:#999985;stroke-width:2" d="M73,139 l-6,-14 6,-14 14,-5 14,5 5,14 -5,14 -14,6 -14,-6z" /><path style="fill:#d9d9d1;stroke:#999985;stroke-width:2" d="M819,139 l-6,-14 6,-14 14,-5 14,5 5,14 -5,14 -14,6 -14,-6z" /><path style="fill:#d9d9d1;stroke:#999985;stroke-width:2" d="M73,885 l-6,-13 6,-15 14,-5 14,5 5,15 -5,13 -14,6 -14,-6z" /><path style="fill:#d9d9d1;stroke:#999985;stroke-width:2" d="M819,885 l-6,-13 6,-15 14,-5 14,5 5,15 -5,13 -14,6 -14,-6z" /><path style="fill:none;stroke:#7f7f68;stroke-width:2" d="M52,57 l864,0 0,859" /></svg>