<!DOCTYPE svg PUBLIC "-//W3C//DTD SVG 20000303 Stylable//EN" "http://www.w3.org/TR/2000/03/WD-SVG-20000303/DTD/svg-20000303-stylable.dtd"[]><svg xmlns="http://www.w3.org/2000/svg" width="64px" height="64px" viewBox="0 0 397 84"><path style="fill:none;stroke:#000;stroke-width:2" d="M11,42 l1,-6 1,-6 3,-5 4,-5 5,-4 5,-3 6,-1 6,-1 7,1 6,1 5,3 5,4 4,5 3,5 1,6 1,6 1,6 1,6 3,5 4,5 5,4 5,3 6,1 6,1 6,-1 6,-1 5,-3 5,-4 4,-5 3,-5 1,-6 1,-6 1,-6 1,-6 3,-5 4,-5 5,-4 5,-3 6,-1 6,-1 7,1 6,1 5,3 5,4 4,5 3,5 1,6 1,6 1,6 1,6 3,5 4,5 5,4 5,3 6,1 6,1 6,-1 6,-1 5,-3 5,-4 4,-5 3,-5 1,-6 1,-6 1,-6 1,-6 3,-5 4,-5 5,-4 5,-3 6,-1 6,-1 7,1 6,1 5,3 5,4 4,5 3,5 1,6 1,6 1,6 1,6 3,5 4,5 5,4 5,3 6,1 6,1 6,-1 6,-1 5,-3 5,-4 4,-5 3,-5 1,-6 1,-6" /></svg>